<?xml version="1.0" encoding="UTF-8"?>
<!DOCTYPE svg PUBLIC "-//W3C//DTD SVG 1.1//EN" "http://www.w3.org/Graphics/SVG/1.1/DTD/svg11.dtd">
<!-- Creator: CorelDRAW X6 -->
<svg xmlns="http://www.w3.org/2000/svg" xml:space="preserve" width="41.6918mm" height="40.7387mm" version="1.1" style="shape-rendering:geometricPrecision; text-rendering:geometricPrecision; image-rendering:optimizeQuality; fill-rule:evenodd; clip-rule:evenodd"
viewBox="0 0 978 956"
 xmlns:xlink="http://www.w3.org/1999/xlink">
 <defs>
  <style type="text/css">
   <![CDATA[
    .fil3 {fill:#3DB351}
    .fil0 {fill:#C71417}
    .fil2 {fill:#EB1E25}
    .fil4 {fill:#F5FFFB}
    .fil1 {fill:#F7DF28}
    .fil5 {fill:white}
   ]]>
  </style>
 </defs>
 <g id="Layer_x0020_1">
  <metadata id="CorelCorpID_0Corel-Layer"/>
  <g id="_652570832">
   <rect class="fil0" width="978" height="956" rx="123" ry="120"/>
   <circle class="fil1" cx="412" cy="164" r="80"/>
   <circle class="fil2" cx="164" cy="164" r="80"/>
   <circle class="fil3" cx="838" cy="818" r="80"/>
   <polygon class="fil4" points="403,337 585,416 869,77 588,512 "/>
   <path class="fil5" d="M268 796l4 104 -196 0 -20 -14c0,0 165,-79 211,-89z"/>
   <path class="fil5" d="M479 794l-14 105 190 0 26 -14c0,0 -157,-81 -203,-91z"/>
   <path class="fil5" d="M457 899l-179 0c0,0 1,-27 53,-51 0,0 -31,-38 -43,-62l0 -42c0,0 -23,-11 -32,-57 0,0 -40,-47 -16,-57 0,0 -12,-96 4,-119 16,-23 44,-77 116,-74 0,0 20,-11 38,-3 18,8 54,22 62,26 8,4 47,34 53,84 0,0 0,49 -8,80 0,0 11,-1 5,24 -5,26 -20,40 -27,46 0,0 -5,30 -26,49l0 31c0,0 -34,58 -49,71 0,0 54,23 50,54z"/>
  </g>
 </g>
</svg>
